<svg xmlns="http://www.w3.org/2000/svg" viewBox="0 0 81.78 13.35"><title>logo</title><g id="图层_2" data-name="图层 2"><g id="图层_1-2" data-name="图层 1"><path d="M.46,12.61.4,11.17,1,11.12A31.34,31.34,0,0,0,3.67,6.36H0V4.93H10.66V6.36H5.21a39.27,39.27,0,0,1-2.4,4.7l4.87-.23L6.19,8.42l1.26-.74,3,4.93-1.21.74-.68-1.09ZM1,.69H9.68V2.12H1Z"/><path d="M19.16,0a15,15,0,0,0,4.93,4.13l-.74,1.26A20.55,20.55,0,0,1,21.23,4V4.7H19.28V5.79h4.35V7.16H19.28v1h3.44v4.59H14.47V8.19h3.38v-1H13.49V5.79h4.36V4.7h-2V4a24.53,24.53,0,0,1-2.06,1.38L13,4.24A16.54,16.54,0,0,0,18,0ZM15.9,11.4h5.38V9.57H15.9Zm2.63-9.91a14.06,14.06,0,0,1-1.89,1.89h3.84A14.49,14.49,0,0,1,19.05,2Z"/><path d="M32.71,5.62V7.56H31V5.62Z"/><path d="M44.49,11.8h-4.3V1.43h4.07q3,.12,3.15,2.7a2,2,0,0,1-1.49,2.29,2.48,2.48,0,0,1,1.89,2.35Q47.87,11.86,44.49,11.8Zm-.52-9H41.62v3H44c1.34,0,2-.5,2-1.49S45.27,2.75,44,2.75Zm.17,4.35H41.62v3.39h2.64c1.45,0,2.16-.54,2.12-1.72S45.56,7.14,44.14,7.1Z"/><path d="M52,7.85v4H50.53V4.24H52V5.39a2,2,0,0,1,1.78-1.32,1.67,1.67,0,0,1,1.2.34L54.2,5.62q-.12-.18-.69-.18C52.52,5.48,52,6.28,52,7.85Z"/><path d="M63.45,11.8H62a3.09,3.09,0,0,1-.23-1.14A2.94,2.94,0,0,1,59,12c-1.49,0-2.27-.72-2.35-2.06s.84-2.17,2.52-2.4a5.92,5.92,0,0,0,2.58-.81c-.08-.84-.63-1.27-1.66-1.31s-1.78.34-1.89,1.14l-1.49-.28a3.05,3.05,0,0,1,3.38-2.18q3.21-.12,3.09,3v3A3.52,3.52,0,0,0,63.45,11.8ZM61.73,8.59V8a4.18,4.18,0,0,1-1.95.63c-1.18.19-1.76.59-1.72,1.21s.4.74,1.32.74C60.87,10.56,61.65,9.89,61.73,8.59Z"/><path d="M72.53,11.8H71.1V7.33c0-1.33-.54-2-1.61-1.94s-1.68.7-1.71,2V11.8H66.34V4.24h1.44v1a2.72,2.72,0,0,1,2.29-1.14q2.52-.12,2.46,3Z"/><path d="M80.35,1.43h1.43V11.8H80.35v-.74a2.78,2.78,0,0,1-2.29.91c-1.8-.15-2.73-1.43-2.81-3.83,0-2.64,1-4,3-4.07a2.67,2.67,0,0,1,2.12.86Zm0,6.82v-.8c0-1.3-.63-2-1.78-2.06s-1.85,1-1.89,2.75.58,2.54,1.84,2.46S80.35,9.78,80.35,8.25Z"/></g></g></svg>