<svg xmlns="http://www.w3.org/2000/svg" viewBox="0 0 2919.09 2919.09"><defs><style>.cls-1{fill:#040000;}.cls-2{fill:#fff;}</style></defs><title>logo</title><g id="图层_2" data-name="图层 2"><g id="图层_2-2" data-name="图层 2"><circle class="cls-1" cx="1459.54" cy="1459.54" r="1459.54"/><path class="cls-2" d="M1430.38,1422.09q.87-12.93.88-26.09a383,383,0,0,0-49.11-188.22c-65.91-117.29-191.52-196.52-335.64-196.52H564v980h482.56a384.46,384.46,0,0,0,335.64-196.52h-.24l.24-.44a382.41,382.41,0,0,0,48.23-162.16q.88-12.91.88-26.06t-.88-26Zm-295.63-190.61a174.64,174.64,0,0,1,86,150.11v256A174.62,174.62,0,0,1,1047,1794.72H773.57V1207.78h284.9A173.58,173.58,0,0,1,1134.75,1231.48Z"/><polygon class="cls-2" points="2355.14 1207.17 2355.14 1011.26 1487.83 1011.26 1487.83 1207.78 2062.05 1207.78 1487.85 1794.72 1487.83 1794.72 1487.83 1991.24 2355.14 1991.24 2355.14 1794.72 1780.35 1794.72 2355.14 1207.17"/></g></g></svg>